# xmcd CD database file
#
# Track frame offsets:
#	150
#	23091
#	45540
#	70467
#	97415
#	116191
#	144335
#	168441
#	195181
#	213079
#	235930
#
# Disc length: 3654 seconds
#
# Revision: 1
# Processed by: cddbd v1.4PL0 Copyright (c) Steve Scherf et al.
# Submitted via: CDex 1.50beta10
#
DISCID=980e440b
DTITLE=Selaelo Selota - Enchanted Gardens
DYEAR=1900
DGENRE=Jazz
TTITLE0=Hlokomela
TTITLE1=Naomi's First Dance
TTITLE2=For God So Loved Us
TTITLE3=Baya ndiphatha - phatha
TTITLE4=Out of my Heart
TTITLE5=So Good
TTITLE6=Enchanted Gardens
TTITLE7=Village Chants
TTITLE8=Le lle Kae
TTITLE9=Untold Stories
TTITLE10=Thrrr... Phaaa!
EXTD=
EXTT0=
EXTT1=
EXTT2=
EXTT3=
EXTT4=
EXTT5=
EXTT6=
EXTT7=
EXTT8=
EXTT9=
EXTT10=
PLAYORDER=
